<mxfile host="app.diagrams.net" modified="2024-05-28T01:17:04.137Z" agent="Mozilla/5.0 (Windows NT 10.0; Win64; x64) AppleWebKit/537.36 (KHTML, like Gecko) Chrome/125.0.0.0 Safari/537.36" etag="hz0Xv2pj8bLFe-CQUM1t" version="24.4.8" type="github" pages="7">
  <diagram id="C5RBs43oDa-KdzZeNtuy" name="Page-1">
    <mxGraphModel dx="1223" dy="871" grid="1" gridSize="10" guides="1" tooltips="1" connect="1" arrows="1" fold="1" page="1" pageScale="1" pageWidth="827" pageHeight="1169" math="0" shadow="0">
      <root>
        <mxCell id="WIyWlLk6GJQsqaUBKTNV-0" />
        <mxCell id="WIyWlLk6GJQsqaUBKTNV-1" parent="WIyWlLk6GJQsqaUBKTNV-0" />
        <mxCell id="zkfFHV4jXpPFQw0GAbJ--0" value="Person" style="swimlane;fontStyle=2;align=center;verticalAlign=top;childLayout=stackLayout;horizontal=1;startSize=26;horizontalStack=0;resizeParent=1;resizeLast=0;collapsible=1;marginBottom=0;rounded=0;shadow=0;strokeWidth=1;" parent="WIyWlLk6GJQsqaUBKTNV-1" vertex="1">
          <mxGeometry x="220" y="120" width="160" height="138" as="geometry">
            <mxRectangle x="230" y="140" width="160" height="26" as="alternateBounds" />
          </mxGeometry>
        </mxCell>
        <mxCell id="zkfFHV4jXpPFQw0GAbJ--1" value="Name" style="text;align=left;verticalAlign=top;spacingLeft=4;spacingRight=4;overflow=hidden;rotatable=0;points=[[0,0.5],[1,0.5]];portConstraint=eastwest;" parent="zkfFHV4jXpPFQw0GAbJ--0" vertex="1">
          <mxGeometry y="26" width="160" height="26" as="geometry" />
        </mxCell>
        <mxCell id="zkfFHV4jXpPFQw0GAbJ--2" value="Phone Number" style="text;align=left;verticalAlign=top;spacingLeft=4;spacingRight=4;overflow=hidden;rotatable=0;points=[[0,0.5],[1,0.5]];portConstraint=eastwest;rounded=0;shadow=0;html=0;" parent="zkfFHV4jXpPFQw0GAbJ--0" vertex="1">
          <mxGeometry y="52" width="160" height="26" as="geometry" />
        </mxCell>
        <mxCell id="zkfFHV4jXpPFQw0GAbJ--3" value="Email Address" style="text;align=left;verticalAlign=top;spacingLeft=4;spacingRight=4;overflow=hidden;rotatable=0;points=[[0,0.5],[1,0.5]];portConstraint=eastwest;rounded=0;shadow=0;html=0;" parent="zkfFHV4jXpPFQw0GAbJ--0" vertex="1">
          <mxGeometry y="78" width="160" height="26" as="geometry" />
        </mxCell>
        <mxCell id="zkfFHV4jXpPFQw0GAbJ--4" value="" style="line;html=1;strokeWidth=1;align=left;verticalAlign=middle;spacingTop=-1;spacingLeft=3;spacingRight=3;rotatable=0;labelPosition=right;points=[];portConstraint=eastwest;" parent="zkfFHV4jXpPFQw0GAbJ--0" vertex="1">
          <mxGeometry y="104" width="160" height="8" as="geometry" />
        </mxCell>
        <mxCell id="zkfFHV4jXpPFQw0GAbJ--5" value="Purchase Parking Pass" style="text;align=left;verticalAlign=top;spacingLeft=4;spacingRight=4;overflow=hidden;rotatable=0;points=[[0,0.5],[1,0.5]];portConstraint=eastwest;" parent="zkfFHV4jXpPFQw0GAbJ--0" vertex="1">
          <mxGeometry y="112" width="160" height="26" as="geometry" />
        </mxCell>
        <mxCell id="zkfFHV4jXpPFQw0GAbJ--6" value="Student" style="swimlane;fontStyle=0;align=center;verticalAlign=top;childLayout=stackLayout;horizontal=1;startSize=26;horizontalStack=0;resizeParent=1;resizeLast=0;collapsible=1;marginBottom=0;rounded=0;shadow=0;strokeWidth=1;" parent="WIyWlLk6GJQsqaUBKTNV-1" vertex="1">
          <mxGeometry x="120" y="360" width="160" height="138" as="geometry">
            <mxRectangle x="130" y="380" width="160" height="26" as="alternateBounds" />
          </mxGeometry>
        </mxCell>
        <mxCell id="zkfFHV4jXpPFQw0GAbJ--7" value="Student Number" style="text;align=left;verticalAlign=top;spacingLeft=4;spacingRight=4;overflow=hidden;rotatable=0;points=[[0,0.5],[1,0.5]];portConstraint=eastwest;" parent="zkfFHV4jXpPFQw0GAbJ--6" vertex="1">
          <mxGeometry y="26" width="160" height="26" as="geometry" />
        </mxCell>
        <mxCell id="zkfFHV4jXpPFQw0GAbJ--8" value="Average Mark" style="text;align=left;verticalAlign=top;spacingLeft=4;spacingRight=4;overflow=hidden;rotatable=0;points=[[0,0.5],[1,0.5]];portConstraint=eastwest;rounded=0;shadow=0;html=0;" parent="zkfFHV4jXpPFQw0GAbJ--6" vertex="1">
          <mxGeometry y="52" width="160" height="26" as="geometry" />
        </mxCell>
        <mxCell id="zkfFHV4jXpPFQw0GAbJ--9" value="" style="line;html=1;strokeWidth=1;align=left;verticalAlign=middle;spacingTop=-1;spacingLeft=3;spacingRight=3;rotatable=0;labelPosition=right;points=[];portConstraint=eastwest;" parent="zkfFHV4jXpPFQw0GAbJ--6" vertex="1">
          <mxGeometry y="78" width="160" height="8" as="geometry" />
        </mxCell>
        <mxCell id="zkfFHV4jXpPFQw0GAbJ--10" value="Is Eligible To Enroll" style="text;align=left;verticalAlign=top;spacingLeft=4;spacingRight=4;overflow=hidden;rotatable=0;points=[[0,0.5],[1,0.5]];portConstraint=eastwest;fontStyle=4" parent="zkfFHV4jXpPFQw0GAbJ--6" vertex="1">
          <mxGeometry y="86" width="160" height="26" as="geometry" />
        </mxCell>
        <mxCell id="zkfFHV4jXpPFQw0GAbJ--11" value="Get Seminars Taken" style="text;align=left;verticalAlign=top;spacingLeft=4;spacingRight=4;overflow=hidden;rotatable=0;points=[[0,0.5],[1,0.5]];portConstraint=eastwest;" parent="zkfFHV4jXpPFQw0GAbJ--6" vertex="1">
          <mxGeometry y="112" width="160" height="26" as="geometry" />
        </mxCell>
        <mxCell id="zkfFHV4jXpPFQw0GAbJ--12" value="" style="endArrow=block;endSize=10;endFill=0;shadow=0;strokeWidth=1;rounded=0;curved=0;edgeStyle=elbowEdgeStyle;elbow=vertical;" parent="WIyWlLk6GJQsqaUBKTNV-1" source="zkfFHV4jXpPFQw0GAbJ--6" target="zkfFHV4jXpPFQw0GAbJ--0" edge="1">
          <mxGeometry width="160" relative="1" as="geometry">
            <mxPoint x="200" y="203" as="sourcePoint" />
            <mxPoint x="200" y="203" as="targetPoint" />
          </mxGeometry>
        </mxCell>
        <mxCell id="zkfFHV4jXpPFQw0GAbJ--13" value="Professor" style="swimlane;fontStyle=0;align=center;verticalAlign=top;childLayout=stackLayout;horizontal=1;startSize=26;horizontalStack=0;resizeParent=1;resizeLast=0;collapsible=1;marginBottom=0;rounded=0;shadow=0;strokeWidth=1;" parent="WIyWlLk6GJQsqaUBKTNV-1" vertex="1">
          <mxGeometry x="330" y="360" width="160" height="70" as="geometry">
            <mxRectangle x="340" y="380" width="170" height="26" as="alternateBounds" />
          </mxGeometry>
        </mxCell>
        <mxCell id="zkfFHV4jXpPFQw0GAbJ--14" value="Salary" style="text;align=left;verticalAlign=top;spacingLeft=4;spacingRight=4;overflow=hidden;rotatable=0;points=[[0,0.5],[1,0.5]];portConstraint=eastwest;" parent="zkfFHV4jXpPFQw0GAbJ--13" vertex="1">
          <mxGeometry y="26" width="160" height="26" as="geometry" />
        </mxCell>
        <mxCell id="zkfFHV4jXpPFQw0GAbJ--15" value="" style="line;html=1;strokeWidth=1;align=left;verticalAlign=middle;spacingTop=-1;spacingLeft=3;spacingRight=3;rotatable=0;labelPosition=right;points=[];portConstraint=eastwest;" parent="zkfFHV4jXpPFQw0GAbJ--13" vertex="1">
          <mxGeometry y="52" width="160" height="8" as="geometry" />
        </mxCell>
        <mxCell id="zkfFHV4jXpPFQw0GAbJ--16" value="" style="endArrow=block;endSize=10;endFill=0;shadow=0;strokeWidth=1;rounded=0;curved=0;edgeStyle=elbowEdgeStyle;elbow=vertical;" parent="WIyWlLk6GJQsqaUBKTNV-1" source="zkfFHV4jXpPFQw0GAbJ--13" target="zkfFHV4jXpPFQw0GAbJ--0" edge="1">
          <mxGeometry width="160" relative="1" as="geometry">
            <mxPoint x="210" y="373" as="sourcePoint" />
            <mxPoint x="310" y="271" as="targetPoint" />
          </mxGeometry>
        </mxCell>
        <mxCell id="zkfFHV4jXpPFQw0GAbJ--17" value="Address" style="swimlane;fontStyle=0;align=center;verticalAlign=top;childLayout=stackLayout;horizontal=1;startSize=26;horizontalStack=0;resizeParent=1;resizeLast=0;collapsible=1;marginBottom=0;rounded=0;shadow=0;strokeWidth=1;" parent="WIyWlLk6GJQsqaUBKTNV-1" vertex="1">
          <mxGeometry x="508" y="120" width="160" height="216" as="geometry">
            <mxRectangle x="550" y="140" width="160" height="26" as="alternateBounds" />
          </mxGeometry>
        </mxCell>
        <mxCell id="zkfFHV4jXpPFQw0GAbJ--18" value="Street" style="text;align=left;verticalAlign=top;spacingLeft=4;spacingRight=4;overflow=hidden;rotatable=0;points=[[0,0.5],[1,0.5]];portConstraint=eastwest;" parent="zkfFHV4jXpPFQw0GAbJ--17" vertex="1">
          <mxGeometry y="26" width="160" height="26" as="geometry" />
        </mxCell>
        <mxCell id="zkfFHV4jXpPFQw0GAbJ--19" value="City" style="text;align=left;verticalAlign=top;spacingLeft=4;spacingRight=4;overflow=hidden;rotatable=0;points=[[0,0.5],[1,0.5]];portConstraint=eastwest;rounded=0;shadow=0;html=0;" parent="zkfFHV4jXpPFQw0GAbJ--17" vertex="1">
          <mxGeometry y="52" width="160" height="26" as="geometry" />
        </mxCell>
        <mxCell id="zkfFHV4jXpPFQw0GAbJ--20" value="State" style="text;align=left;verticalAlign=top;spacingLeft=4;spacingRight=4;overflow=hidden;rotatable=0;points=[[0,0.5],[1,0.5]];portConstraint=eastwest;rounded=0;shadow=0;html=0;" parent="zkfFHV4jXpPFQw0GAbJ--17" vertex="1">
          <mxGeometry y="78" width="160" height="26" as="geometry" />
        </mxCell>
        <mxCell id="zkfFHV4jXpPFQw0GAbJ--21" value="Postal Code" style="text;align=left;verticalAlign=top;spacingLeft=4;spacingRight=4;overflow=hidden;rotatable=0;points=[[0,0.5],[1,0.5]];portConstraint=eastwest;rounded=0;shadow=0;html=0;" parent="zkfFHV4jXpPFQw0GAbJ--17" vertex="1">
          <mxGeometry y="104" width="160" height="26" as="geometry" />
        </mxCell>
        <mxCell id="zkfFHV4jXpPFQw0GAbJ--22" value="Country" style="text;align=left;verticalAlign=top;spacingLeft=4;spacingRight=4;overflow=hidden;rotatable=0;points=[[0,0.5],[1,0.5]];portConstraint=eastwest;rounded=0;shadow=0;html=0;" parent="zkfFHV4jXpPFQw0GAbJ--17" vertex="1">
          <mxGeometry y="130" width="160" height="26" as="geometry" />
        </mxCell>
        <mxCell id="zkfFHV4jXpPFQw0GAbJ--23" value="" style="line;html=1;strokeWidth=1;align=left;verticalAlign=middle;spacingTop=-1;spacingLeft=3;spacingRight=3;rotatable=0;labelPosition=right;points=[];portConstraint=eastwest;" parent="zkfFHV4jXpPFQw0GAbJ--17" vertex="1">
          <mxGeometry y="156" width="160" height="8" as="geometry" />
        </mxCell>
        <mxCell id="zkfFHV4jXpPFQw0GAbJ--24" value="Validate" style="text;align=left;verticalAlign=top;spacingLeft=4;spacingRight=4;overflow=hidden;rotatable=0;points=[[0,0.5],[1,0.5]];portConstraint=eastwest;" parent="zkfFHV4jXpPFQw0GAbJ--17" vertex="1">
          <mxGeometry y="164" width="160" height="26" as="geometry" />
        </mxCell>
        <mxCell id="zkfFHV4jXpPFQw0GAbJ--25" value="Output As Label" style="text;align=left;verticalAlign=top;spacingLeft=4;spacingRight=4;overflow=hidden;rotatable=0;points=[[0,0.5],[1,0.5]];portConstraint=eastwest;" parent="zkfFHV4jXpPFQw0GAbJ--17" vertex="1">
          <mxGeometry y="190" width="160" height="26" as="geometry" />
        </mxCell>
        <mxCell id="zkfFHV4jXpPFQw0GAbJ--26" value="" style="endArrow=open;shadow=0;strokeWidth=1;rounded=0;curved=0;endFill=1;edgeStyle=elbowEdgeStyle;elbow=vertical;" parent="WIyWlLk6GJQsqaUBKTNV-1" source="zkfFHV4jXpPFQw0GAbJ--0" target="zkfFHV4jXpPFQw0GAbJ--17" edge="1">
          <mxGeometry x="0.5" y="41" relative="1" as="geometry">
            <mxPoint x="380" y="192" as="sourcePoint" />
            <mxPoint x="540" y="192" as="targetPoint" />
            <mxPoint x="-40" y="32" as="offset" />
          </mxGeometry>
        </mxCell>
        <mxCell id="zkfFHV4jXpPFQw0GAbJ--27" value="0..1" style="resizable=0;align=left;verticalAlign=bottom;labelBackgroundColor=none;fontSize=12;" parent="zkfFHV4jXpPFQw0GAbJ--26" connectable="0" vertex="1">
          <mxGeometry x="-1" relative="1" as="geometry">
            <mxPoint y="4" as="offset" />
          </mxGeometry>
        </mxCell>
        <mxCell id="zkfFHV4jXpPFQw0GAbJ--28" value="1" style="resizable=0;align=right;verticalAlign=bottom;labelBackgroundColor=none;fontSize=12;" parent="zkfFHV4jXpPFQw0GAbJ--26" connectable="0" vertex="1">
          <mxGeometry x="1" relative="1" as="geometry">
            <mxPoint x="-7" y="4" as="offset" />
          </mxGeometry>
        </mxCell>
        <mxCell id="zkfFHV4jXpPFQw0GAbJ--29" value="lives at" style="text;html=1;resizable=0;points=[];;align=center;verticalAlign=middle;labelBackgroundColor=none;rounded=0;shadow=0;strokeWidth=1;fontSize=12;" parent="zkfFHV4jXpPFQw0GAbJ--26" vertex="1" connectable="0">
          <mxGeometry x="0.5" y="49" relative="1" as="geometry">
            <mxPoint x="-38" y="40" as="offset" />
          </mxGeometry>
        </mxCell>
      </root>
    </mxGraphModel>
  </diagram>
  <diagram id="-I1HoAY3Ckjs4-hwfOFP" name="USE CASE">
    <mxGraphModel dx="1354" dy="686" grid="1" gridSize="10" guides="1" tooltips="1" connect="1" arrows="1" fold="1" page="1" pageScale="1" pageWidth="850" pageHeight="1100" math="0" shadow="0">
      <root>
        <mxCell id="0" />
        <mxCell id="1" parent="0" />
        <mxCell id="XQFFS4-z-xIEc-lus9Jz-1" style="edgeStyle=none;rounded=0;orthogonalLoop=1;jettySize=auto;html=1;" edge="1" parent="1" target="XQFFS4-z-xIEc-lus9Jz-10">
          <mxGeometry relative="1" as="geometry">
            <mxPoint x="220" y="190" as="sourcePoint" />
          </mxGeometry>
        </mxCell>
        <mxCell id="XQFFS4-z-xIEc-lus9Jz-2" style="edgeStyle=none;rounded=0;orthogonalLoop=1;jettySize=auto;html=1;entryX=0;entryY=0.5;entryDx=0;entryDy=0;" edge="1" parent="1" target="XQFFS4-z-xIEc-lus9Jz-12">
          <mxGeometry relative="1" as="geometry">
            <mxPoint x="220" y="190" as="sourcePoint" />
          </mxGeometry>
        </mxCell>
        <mxCell id="XQFFS4-z-xIEc-lus9Jz-3" style="edgeStyle=none;rounded=0;orthogonalLoop=1;jettySize=auto;html=1;entryX=0;entryY=0.5;entryDx=0;entryDy=0;" edge="1" parent="1" target="XQFFS4-z-xIEc-lus9Jz-13">
          <mxGeometry relative="1" as="geometry">
            <mxPoint x="220" y="190" as="sourcePoint" />
          </mxGeometry>
        </mxCell>
        <mxCell id="XQFFS4-z-xIEc-lus9Jz-4" style="edgeStyle=none;rounded=0;orthogonalLoop=1;jettySize=auto;html=1;entryX=0;entryY=0;entryDx=0;entryDy=0;" edge="1" parent="1" target="XQFFS4-z-xIEc-lus9Jz-14">
          <mxGeometry relative="1" as="geometry">
            <mxPoint x="220" y="190" as="sourcePoint" />
          </mxGeometry>
        </mxCell>
        <mxCell id="XQFFS4-z-xIEc-lus9Jz-6" value="Actor" style="shape=umlActor;verticalLabelPosition=bottom;verticalAlign=top;html=1;outlineConnect=0;" vertex="1" parent="1">
          <mxGeometry x="179" y="146" width="40" height="80" as="geometry" />
        </mxCell>
        <mxCell id="XQFFS4-z-xIEc-lus9Jz-10" value="Mengelola Dataset" style="ellipse;whiteSpace=wrap;html=1;" vertex="1" parent="1">
          <mxGeometry x="320" y="40" width="120" height="60" as="geometry" />
        </mxCell>
        <mxCell id="XQFFS4-z-xIEc-lus9Jz-11" value="Melihat Hasil Perhitungan" style="ellipse;whiteSpace=wrap;html=1;" vertex="1" parent="1">
          <mxGeometry x="320" y="120" width="120" height="60" as="geometry" />
        </mxCell>
        <mxCell id="XQFFS4-z-xIEc-lus9Jz-12" value="Melakukan Prediksi" style="ellipse;whiteSpace=wrap;html=1;" vertex="1" parent="1">
          <mxGeometry x="320" y="200" width="120" height="60" as="geometry" />
        </mxCell>
        <mxCell id="XQFFS4-z-xIEc-lus9Jz-13" value="Melakukan Pengujian" style="ellipse;whiteSpace=wrap;html=1;" vertex="1" parent="1">
          <mxGeometry x="320" y="280" width="120" height="60" as="geometry" />
        </mxCell>
        <mxCell id="XQFFS4-z-xIEc-lus9Jz-14" value="Logout" style="ellipse;whiteSpace=wrap;html=1;" vertex="1" parent="1">
          <mxGeometry x="320" y="360" width="120" height="60" as="geometry" />
        </mxCell>
        <mxCell id="XQFFS4-z-xIEc-lus9Jz-15" style="edgeStyle=none;rounded=0;orthogonalLoop=1;jettySize=auto;html=1;entryX=0.025;entryY=0.7;entryDx=0;entryDy=0;entryPerimeter=0;" edge="1" parent="1" target="XQFFS4-z-xIEc-lus9Jz-11">
          <mxGeometry relative="1" as="geometry">
            <mxPoint x="220" y="190" as="sourcePoint" />
          </mxGeometry>
        </mxCell>
        <mxCell id="XQFFS4-z-xIEc-lus9Jz-17" value="Login" style="ellipse;whiteSpace=wrap;html=1;" vertex="1" parent="1">
          <mxGeometry x="540" y="200" width="120" height="60" as="geometry" />
        </mxCell>
        <mxCell id="XQFFS4-z-xIEc-lus9Jz-18" value="Sistem" style="shape=umlFrame;whiteSpace=wrap;html=1;pointerEvents=0;" vertex="1" parent="1">
          <mxGeometry x="280" y="10" width="190" height="430" as="geometry" />
        </mxCell>
        <mxCell id="XQFFS4-z-xIEc-lus9Jz-19" value="&amp;lt;&amp;lt;&lt;span style=&quot;white-space: pre;&quot;&gt;&#x9;&lt;/span&gt;include&amp;gt;&amp;gt;" style="endArrow=open;endSize=12;dashed=1;html=1;rounded=0;entryX=0;entryY=0;entryDx=0;entryDy=0;" edge="1" parent="1" target="XQFFS4-z-xIEc-lus9Jz-17">
          <mxGeometry width="160" relative="1" as="geometry">
            <mxPoint x="440" y="69.58" as="sourcePoint" />
            <mxPoint x="600" y="69.58" as="targetPoint" />
          </mxGeometry>
        </mxCell>
        <mxCell id="XQFFS4-z-xIEc-lus9Jz-20" value="&amp;lt;&amp;lt;&lt;span style=&quot;white-space: pre;&quot;&gt;&#x9;&lt;/span&gt;include&amp;gt;&amp;gt;" style="endArrow=open;endSize=12;dashed=1;html=1;rounded=0;entryX=0.049;entryY=0.344;entryDx=0;entryDy=0;entryPerimeter=0;" edge="1" parent="1" target="XQFFS4-z-xIEc-lus9Jz-17">
          <mxGeometry width="160" relative="1" as="geometry">
            <mxPoint x="440" y="160" as="sourcePoint" />
            <mxPoint x="585" y="319.41999999999996" as="targetPoint" />
          </mxGeometry>
        </mxCell>
        <mxCell id="XQFFS4-z-xIEc-lus9Jz-21" value="&amp;lt;&amp;lt;&lt;span style=&quot;white-space: pre;&quot;&gt;&#x9;&lt;/span&gt;include&amp;gt;&amp;gt;" style="endArrow=open;endSize=12;dashed=1;html=1;rounded=0;entryX=0.007;entryY=0.636;entryDx=0;entryDy=0;entryPerimeter=0;" edge="1" parent="1" target="XQFFS4-z-xIEc-lus9Jz-17">
          <mxGeometry width="160" relative="1" as="geometry">
            <mxPoint x="440" y="230" as="sourcePoint" />
            <mxPoint x="556" y="317" as="targetPoint" />
          </mxGeometry>
        </mxCell>
        <mxCell id="XQFFS4-z-xIEc-lus9Jz-22" value="&amp;lt;&amp;lt;&lt;span style=&quot;white-space: pre;&quot;&gt;&#x9;&lt;/span&gt;include&amp;gt;&amp;gt;" style="endArrow=open;endSize=12;dashed=1;html=1;rounded=0;entryX=0.069;entryY=0.858;entryDx=0;entryDy=0;entryPerimeter=0;" edge="1" parent="1" target="XQFFS4-z-xIEc-lus9Jz-17">
          <mxGeometry width="160" relative="1" as="geometry">
            <mxPoint x="439" y="312" as="sourcePoint" />
            <mxPoint x="550" y="346" as="targetPoint" />
          </mxGeometry>
        </mxCell>
        <mxCell id="XQFFS4-z-xIEc-lus9Jz-23" value="&amp;lt;&amp;lt;&lt;span style=&quot;white-space: pre;&quot;&gt;&#x9;&lt;/span&gt;include&amp;gt;&amp;gt;" style="endArrow=open;endSize=12;dashed=1;html=1;rounded=0;entryX=0;entryY=1;entryDx=0;entryDy=0;" edge="1" parent="1" target="XQFFS4-z-xIEc-lus9Jz-17">
          <mxGeometry width="160" relative="1" as="geometry">
            <mxPoint x="440" y="395" as="sourcePoint" />
            <mxPoint x="559" y="360" as="targetPoint" />
          </mxGeometry>
        </mxCell>
      </root>
    </mxGraphModel>
  </diagram>
  <diagram id="G56Ov8Fks9qaqwVjDq04" name="Activity Dataset">
    <mxGraphModel dx="1354" dy="686" grid="1" gridSize="10" guides="1" tooltips="1" connect="1" arrows="1" fold="1" page="1" pageScale="1" pageWidth="850" pageHeight="1100" math="0" shadow="0">
      <root>
        <mxCell id="0" />
        <mxCell id="1" parent="0" />
        <mxCell id="SdE2yzBLfwj23oEHZqF_-1" value="Admin" style="swimlane;whiteSpace=wrap" vertex="1" parent="1">
          <mxGeometry x="160.5" y="128" width="199.5" height="392" as="geometry">
            <mxRectangle x="164.5" y="128" width="90" height="30" as="alternateBounds" />
          </mxGeometry>
        </mxCell>
        <mxCell id="SdE2yzBLfwj23oEHZqF_-2" value="" style="ellipse;shape=startState;fillColor=#000000;strokeColor=#ff0000;" vertex="1" parent="SdE2yzBLfwj23oEHZqF_-1">
          <mxGeometry x="100" y="40" width="30" height="30" as="geometry" />
        </mxCell>
        <mxCell id="SdE2yzBLfwj23oEHZqF_-3" value="" style="edgeStyle=elbowEdgeStyle;elbow=horizontal;verticalAlign=bottom;endArrow=open;endSize=8;strokeColor=#FF0000;endFill=1;rounded=0" edge="1" parent="SdE2yzBLfwj23oEHZqF_-1" source="SdE2yzBLfwj23oEHZqF_-2" target="SdE2yzBLfwj23oEHZqF_-4">
          <mxGeometry x="100" y="40" as="geometry">
            <mxPoint x="115" y="110" as="targetPoint" />
          </mxGeometry>
        </mxCell>
        <mxCell id="SdE2yzBLfwj23oEHZqF_-4" value="Masuk ke &#xa;halaman admin" style="" vertex="1" parent="SdE2yzBLfwj23oEHZqF_-1">
          <mxGeometry x="60" y="110" width="110" height="50" as="geometry" />
        </mxCell>
        <mxCell id="SdE2yzBLfwj23oEHZqF_-5" value="Masuk Menu&#xa;Dataset" style="" vertex="1" parent="SdE2yzBLfwj23oEHZqF_-1">
          <mxGeometry x="60" y="220" width="110" height="50" as="geometry" />
        </mxCell>
        <mxCell id="SdE2yzBLfwj23oEHZqF_-6" value="Input Dataset" style="" vertex="1" parent="SdE2yzBLfwj23oEHZqF_-1">
          <mxGeometry x="60" y="325" width="110" height="50" as="geometry" />
        </mxCell>
        <mxCell id="SdE2yzBLfwj23oEHZqF_-7" value="" style="endArrow=open;strokeColor=#FF0000;endFill=1;rounded=0" edge="1" parent="SdE2yzBLfwj23oEHZqF_-1" source="SdE2yzBLfwj23oEHZqF_-5" target="SdE2yzBLfwj23oEHZqF_-6">
          <mxGeometry relative="1" as="geometry" />
        </mxCell>
        <mxCell id="SdE2yzBLfwj23oEHZqF_-8" value="Sistem" style="swimlane;whiteSpace=wrap" vertex="1" parent="1">
          <mxGeometry x="360" y="128" width="199.5" height="392" as="geometry">
            <mxRectangle x="164.5" y="128" width="90" height="30" as="alternateBounds" />
          </mxGeometry>
        </mxCell>
        <mxCell id="SdE2yzBLfwj23oEHZqF_-9" value="Menampilkan&#xa;halaman dashboard" style="" vertex="1" parent="SdE2yzBLfwj23oEHZqF_-8">
          <mxGeometry x="60" y="110" width="110" height="50" as="geometry" />
        </mxCell>
        <mxCell id="SdE2yzBLfwj23oEHZqF_-10" value="menampilkan data &#xa;dataset terinput" style="" vertex="1" parent="SdE2yzBLfwj23oEHZqF_-8">
          <mxGeometry x="65" y="232" width="110" height="50" as="geometry" />
        </mxCell>
        <mxCell id="SdE2yzBLfwj23oEHZqF_-11" value="" style="endArrow=open;strokeColor=#FF0000;endFill=1;rounded=0" edge="1" parent="SdE2yzBLfwj23oEHZqF_-8" source="SdE2yzBLfwj23oEHZqF_-10">
          <mxGeometry relative="1" as="geometry">
            <mxPoint x="120" y="332" as="targetPoint" />
          </mxGeometry>
        </mxCell>
        <mxCell id="SdE2yzBLfwj23oEHZqF_-12" value="" style="ellipse;html=1;shape=endState;fillColor=#000000;strokeColor=#ff0000;" vertex="1" parent="SdE2yzBLfwj23oEHZqF_-8">
          <mxGeometry x="110" y="337" width="20" height="20" as="geometry" />
        </mxCell>
        <mxCell id="SdE2yzBLfwj23oEHZqF_-13" value="" style="endArrow=open;strokeColor=#FF0000;endFill=1;rounded=0;entryX=0.5;entryY=0;entryDx=0;entryDy=0;" edge="1" parent="1" target="SdE2yzBLfwj23oEHZqF_-5">
          <mxGeometry relative="1" as="geometry">
            <mxPoint x="480" y="290" as="sourcePoint" />
            <mxPoint x="260" y="310" as="targetPoint" />
            <Array as="points">
              <mxPoint x="480" y="320" />
              <mxPoint x="276" y="320" />
            </Array>
          </mxGeometry>
        </mxCell>
        <mxCell id="SdE2yzBLfwj23oEHZqF_-14" value="" style="edgeStyle=elbowEdgeStyle;elbow=horizontal;verticalAlign=bottom;endArrow=open;endSize=8;strokeColor=#FF0000;endFill=1;rounded=0;exitX=1.006;exitY=0.432;exitDx=0;exitDy=0;exitPerimeter=0;entryX=0;entryY=0.44;entryDx=0;entryDy=0;entryPerimeter=0;" edge="1" parent="1">
          <mxGeometry x="100" y="40" as="geometry">
            <mxPoint x="420" y="261" as="targetPoint" />
            <mxPoint x="331.1600000000001" y="260.6" as="sourcePoint" />
          </mxGeometry>
        </mxCell>
        <mxCell id="SdE2yzBLfwj23oEHZqF_-15" value="" style="endArrow=open;strokeColor=#FF0000;endFill=1;rounded=0;exitX=1.01;exitY=0.534;exitDx=0;exitDy=0;entryX=0;entryY=0.5;entryDx=0;entryDy=0;exitPerimeter=0;" edge="1" parent="1" source="SdE2yzBLfwj23oEHZqF_-6" target="SdE2yzBLfwj23oEHZqF_-10">
          <mxGeometry relative="1" as="geometry">
            <mxPoint x="285.5" y="408" as="sourcePoint" />
            <mxPoint x="285.5" y="463" as="targetPoint" />
            <Array as="points">
              <mxPoint x="400" y="480" />
              <mxPoint x="400" y="385" />
            </Array>
          </mxGeometry>
        </mxCell>
      </root>
    </mxGraphModel>
  </diagram>
  <diagram name="Activity Perhitungan" id="qkkkA7OwBt-u5T4HLzOf">
    <mxGraphModel dx="1128" dy="572" grid="1" gridSize="10" guides="1" tooltips="1" connect="1" arrows="1" fold="1" page="1" pageScale="1" pageWidth="850" pageHeight="1100" math="0" shadow="0">
      <root>
        <mxCell id="4bBWjOUro-sY2pXZo99H-0" />
        <mxCell id="4bBWjOUro-sY2pXZo99H-1" parent="4bBWjOUro-sY2pXZo99H-0" />
        <mxCell id="4bBWjOUro-sY2pXZo99H-2" value="Admin" style="swimlane;whiteSpace=wrap" vertex="1" parent="4bBWjOUro-sY2pXZo99H-1">
          <mxGeometry x="160.5" y="128" width="199.5" height="352" as="geometry">
            <mxRectangle x="164.5" y="128" width="90" height="30" as="alternateBounds" />
          </mxGeometry>
        </mxCell>
        <mxCell id="4bBWjOUro-sY2pXZo99H-3" value="" style="ellipse;shape=startState;fillColor=#000000;strokeColor=#ff0000;" vertex="1" parent="4bBWjOUro-sY2pXZo99H-2">
          <mxGeometry x="100" y="40" width="30" height="30" as="geometry" />
        </mxCell>
        <mxCell id="4bBWjOUro-sY2pXZo99H-4" value="" style="edgeStyle=elbowEdgeStyle;elbow=horizontal;verticalAlign=bottom;endArrow=open;endSize=8;strokeColor=#FF0000;endFill=1;rounded=0" edge="1" parent="4bBWjOUro-sY2pXZo99H-2" source="4bBWjOUro-sY2pXZo99H-3" target="4bBWjOUro-sY2pXZo99H-5">
          <mxGeometry x="100" y="40" as="geometry">
            <mxPoint x="115" y="110" as="targetPoint" />
          </mxGeometry>
        </mxCell>
        <mxCell id="4bBWjOUro-sY2pXZo99H-5" value="Masuk ke &#xa;halaman admin" style="" vertex="1" parent="4bBWjOUro-sY2pXZo99H-2">
          <mxGeometry x="60" y="110" width="110" height="50" as="geometry" />
        </mxCell>
        <mxCell id="4bBWjOUro-sY2pXZo99H-7" value="Masuk Menu&#xa;Perhitungan" style="" vertex="1" parent="4bBWjOUro-sY2pXZo99H-2">
          <mxGeometry x="60" y="222" width="110" height="50" as="geometry" />
        </mxCell>
        <mxCell id="4bBWjOUro-sY2pXZo99H-9" value="Sistem" style="swimlane;whiteSpace=wrap" vertex="1" parent="4bBWjOUro-sY2pXZo99H-1">
          <mxGeometry x="360" y="128" width="199.5" height="352" as="geometry">
            <mxRectangle x="164.5" y="128" width="90" height="30" as="alternateBounds" />
          </mxGeometry>
        </mxCell>
        <mxCell id="4bBWjOUro-sY2pXZo99H-10" value="Menampilkan&#xa;halaman dashboard" style="" vertex="1" parent="4bBWjOUro-sY2pXZo99H-9">
          <mxGeometry x="60" y="110" width="110" height="50" as="geometry" />
        </mxCell>
        <mxCell id="4bBWjOUro-sY2pXZo99H-11" value="menampilkan data &#xa;dataset terinput" style="" vertex="1" parent="4bBWjOUro-sY2pXZo99H-9">
          <mxGeometry x="65" y="222" width="110" height="50" as="geometry" />
        </mxCell>
        <mxCell id="4bBWjOUro-sY2pXZo99H-12" value="" style="endArrow=open;strokeColor=#FF0000;endFill=1;rounded=0" edge="1" parent="4bBWjOUro-sY2pXZo99H-9" source="4bBWjOUro-sY2pXZo99H-11">
          <mxGeometry relative="1" as="geometry">
            <mxPoint x="120" y="304" as="targetPoint" />
          </mxGeometry>
        </mxCell>
        <mxCell id="4bBWjOUro-sY2pXZo99H-13" value="" style="ellipse;html=1;shape=endState;fillColor=#000000;strokeColor=#ff0000;" vertex="1" parent="4bBWjOUro-sY2pXZo99H-9">
          <mxGeometry x="110" y="309" width="20" height="20" as="geometry" />
        </mxCell>
        <mxCell id="hvT4ZINjaYkxMhEl7d4s-0" value="" style="edgeStyle=elbowEdgeStyle;elbow=horizontal;verticalAlign=bottom;endArrow=open;endSize=8;strokeColor=#FF0000;endFill=1;rounded=0;exitX=1;exitY=0.5;exitDx=0;exitDy=0;entryX=0;entryY=0.44;entryDx=0;entryDy=0;entryPerimeter=0;" edge="1" parent="4bBWjOUro-sY2pXZo99H-9" source="4bBWjOUro-sY2pXZo99H-7">
          <mxGeometry x="-260" y="-88" as="geometry">
            <mxPoint x="64.83999999999997" y="247.06" as="targetPoint" />
            <mxPoint x="-23.999999999999943" y="246.66000000000003" as="sourcePoint" />
          </mxGeometry>
        </mxCell>
        <mxCell id="4bBWjOUro-sY2pXZo99H-14" value="" style="endArrow=open;strokeColor=#FF0000;endFill=1;rounded=0;entryX=0.5;entryY=0;entryDx=0;entryDy=0;" edge="1" parent="4bBWjOUro-sY2pXZo99H-1">
          <mxGeometry relative="1" as="geometry">
            <mxPoint x="480" y="290" as="sourcePoint" />
            <mxPoint x="275.5" y="348" as="targetPoint" />
            <Array as="points">
              <mxPoint x="480" y="320" />
              <mxPoint x="276" y="320" />
            </Array>
          </mxGeometry>
        </mxCell>
        <mxCell id="4bBWjOUro-sY2pXZo99H-15" value="" style="edgeStyle=elbowEdgeStyle;elbow=horizontal;verticalAlign=bottom;endArrow=open;endSize=8;strokeColor=#FF0000;endFill=1;rounded=0;exitX=1.006;exitY=0.432;exitDx=0;exitDy=0;exitPerimeter=0;entryX=0;entryY=0.44;entryDx=0;entryDy=0;entryPerimeter=0;" edge="1" parent="4bBWjOUro-sY2pXZo99H-1">
          <mxGeometry x="100" y="40" as="geometry">
            <mxPoint x="420" y="261" as="targetPoint" />
            <mxPoint x="331.1600000000001" y="260.6" as="sourcePoint" />
          </mxGeometry>
        </mxCell>
      </root>
    </mxGraphModel>
  </diagram>
  <diagram name="Activity Prediksi" id="muwt4uI_w8J_vjEaADBg">
    <mxGraphModel dx="1354" dy="686" grid="1" gridSize="10" guides="1" tooltips="1" connect="1" arrows="1" fold="1" page="1" pageScale="1" pageWidth="850" pageHeight="1100" math="0" shadow="0">
      <root>
        <mxCell id="szD8IzGI-gbUFyGMUZFk-0" />
        <mxCell id="szD8IzGI-gbUFyGMUZFk-1" parent="szD8IzGI-gbUFyGMUZFk-0" />
        <mxCell id="szD8IzGI-gbUFyGMUZFk-2" value="Admin" style="swimlane;whiteSpace=wrap" vertex="1" parent="szD8IzGI-gbUFyGMUZFk-1">
          <mxGeometry x="160.5" y="128" width="199.5" height="392" as="geometry">
            <mxRectangle x="164.5" y="128" width="90" height="30" as="alternateBounds" />
          </mxGeometry>
        </mxCell>
        <mxCell id="szD8IzGI-gbUFyGMUZFk-3" value="" style="ellipse;shape=startState;fillColor=#000000;strokeColor=#ff0000;" vertex="1" parent="szD8IzGI-gbUFyGMUZFk-2">
          <mxGeometry x="100" y="40" width="30" height="30" as="geometry" />
        </mxCell>
        <mxCell id="szD8IzGI-gbUFyGMUZFk-4" value="" style="edgeStyle=elbowEdgeStyle;elbow=horizontal;verticalAlign=bottom;endArrow=open;endSize=8;strokeColor=#FF0000;endFill=1;rounded=0" edge="1" parent="szD8IzGI-gbUFyGMUZFk-2" source="szD8IzGI-gbUFyGMUZFk-3" target="szD8IzGI-gbUFyGMUZFk-5">
          <mxGeometry x="100" y="40" as="geometry">
            <mxPoint x="115" y="110" as="targetPoint" />
          </mxGeometry>
        </mxCell>
        <mxCell id="szD8IzGI-gbUFyGMUZFk-5" value="Masuk ke &#xa;halaman admin" style="" vertex="1" parent="szD8IzGI-gbUFyGMUZFk-2">
          <mxGeometry x="60" y="110" width="110" height="50" as="geometry" />
        </mxCell>
        <mxCell id="szD8IzGI-gbUFyGMUZFk-6" value="Masuk Menu&#xa;Prediksi" style="" vertex="1" parent="szD8IzGI-gbUFyGMUZFk-2">
          <mxGeometry x="60" y="220" width="110" height="50" as="geometry" />
        </mxCell>
        <mxCell id="szD8IzGI-gbUFyGMUZFk-7" value="Input Periode" style="" vertex="1" parent="szD8IzGI-gbUFyGMUZFk-2">
          <mxGeometry x="60" y="325" width="110" height="50" as="geometry" />
        </mxCell>
        <mxCell id="szD8IzGI-gbUFyGMUZFk-8" value="" style="endArrow=open;strokeColor=#FF0000;endFill=1;rounded=0" edge="1" parent="szD8IzGI-gbUFyGMUZFk-2" source="szD8IzGI-gbUFyGMUZFk-6" target="szD8IzGI-gbUFyGMUZFk-7">
          <mxGeometry relative="1" as="geometry" />
        </mxCell>
        <mxCell id="szD8IzGI-gbUFyGMUZFk-9" value="Sistem" style="swimlane;whiteSpace=wrap" vertex="1" parent="szD8IzGI-gbUFyGMUZFk-1">
          <mxGeometry x="360" y="128" width="199.5" height="392" as="geometry">
            <mxRectangle x="164.5" y="128" width="90" height="30" as="alternateBounds" />
          </mxGeometry>
        </mxCell>
        <mxCell id="szD8IzGI-gbUFyGMUZFk-10" value="Menampilkan&#xa;halaman dashboard" style="" vertex="1" parent="szD8IzGI-gbUFyGMUZFk-9">
          <mxGeometry x="60" y="110" width="110" height="50" as="geometry" />
        </mxCell>
        <mxCell id="szD8IzGI-gbUFyGMUZFk-11" value="Menampilkan&#xa;Hasil Prediksi" style="" vertex="1" parent="szD8IzGI-gbUFyGMUZFk-9">
          <mxGeometry x="65" y="232" width="110" height="50" as="geometry" />
        </mxCell>
        <mxCell id="szD8IzGI-gbUFyGMUZFk-12" value="" style="endArrow=open;strokeColor=#FF0000;endFill=1;rounded=0" edge="1" parent="szD8IzGI-gbUFyGMUZFk-9" source="szD8IzGI-gbUFyGMUZFk-11">
          <mxGeometry relative="1" as="geometry">
            <mxPoint x="120" y="332" as="targetPoint" />
          </mxGeometry>
        </mxCell>
        <mxCell id="szD8IzGI-gbUFyGMUZFk-13" value="" style="ellipse;html=1;shape=endState;fillColor=#000000;strokeColor=#ff0000;" vertex="1" parent="szD8IzGI-gbUFyGMUZFk-9">
          <mxGeometry x="110" y="337" width="20" height="20" as="geometry" />
        </mxCell>
        <mxCell id="szD8IzGI-gbUFyGMUZFk-14" value="" style="endArrow=open;strokeColor=#FF0000;endFill=1;rounded=0;entryX=0.5;entryY=0;entryDx=0;entryDy=0;" edge="1" parent="szD8IzGI-gbUFyGMUZFk-1" target="szD8IzGI-gbUFyGMUZFk-6">
          <mxGeometry relative="1" as="geometry">
            <mxPoint x="480" y="290" as="sourcePoint" />
            <mxPoint x="260" y="310" as="targetPoint" />
            <Array as="points">
              <mxPoint x="480" y="320" />
              <mxPoint x="276" y="320" />
            </Array>
          </mxGeometry>
        </mxCell>
        <mxCell id="szD8IzGI-gbUFyGMUZFk-15" value="" style="edgeStyle=elbowEdgeStyle;elbow=horizontal;verticalAlign=bottom;endArrow=open;endSize=8;strokeColor=#FF0000;endFill=1;rounded=0;exitX=1.006;exitY=0.432;exitDx=0;exitDy=0;exitPerimeter=0;entryX=0;entryY=0.44;entryDx=0;entryDy=0;entryPerimeter=0;" edge="1" parent="szD8IzGI-gbUFyGMUZFk-1">
          <mxGeometry x="100" y="40" as="geometry">
            <mxPoint x="420" y="261" as="targetPoint" />
            <mxPoint x="331.1600000000001" y="260.6" as="sourcePoint" />
          </mxGeometry>
        </mxCell>
        <mxCell id="szD8IzGI-gbUFyGMUZFk-16" value="" style="endArrow=open;strokeColor=#FF0000;endFill=1;rounded=0;exitX=1.01;exitY=0.534;exitDx=0;exitDy=0;entryX=0;entryY=0.5;entryDx=0;entryDy=0;exitPerimeter=0;" edge="1" parent="szD8IzGI-gbUFyGMUZFk-1" source="szD8IzGI-gbUFyGMUZFk-7" target="szD8IzGI-gbUFyGMUZFk-11">
          <mxGeometry relative="1" as="geometry">
            <mxPoint x="285.5" y="408" as="sourcePoint" />
            <mxPoint x="285.5" y="463" as="targetPoint" />
            <Array as="points">
              <mxPoint x="400" y="480" />
              <mxPoint x="400" y="385" />
            </Array>
          </mxGeometry>
        </mxCell>
      </root>
    </mxGraphModel>
  </diagram>
  <diagram name="Activity Pengujian" id="uWvYkyYuLnaCy7pVnTQP">
    <mxGraphModel dx="1354" dy="686" grid="1" gridSize="10" guides="1" tooltips="1" connect="1" arrows="1" fold="1" page="1" pageScale="1" pageWidth="850" pageHeight="1100" math="0" shadow="0">
      <root>
        <mxCell id="4KUZXzNGoTsXKYdKc4pu-0" />
        <mxCell id="4KUZXzNGoTsXKYdKc4pu-1" parent="4KUZXzNGoTsXKYdKc4pu-0" />
        <mxCell id="4KUZXzNGoTsXKYdKc4pu-2" value="Admin" style="swimlane;whiteSpace=wrap" vertex="1" parent="4KUZXzNGoTsXKYdKc4pu-1">
          <mxGeometry x="160.5" y="128" width="199.5" height="392" as="geometry">
            <mxRectangle x="164.5" y="128" width="90" height="30" as="alternateBounds" />
          </mxGeometry>
        </mxCell>
        <mxCell id="4KUZXzNGoTsXKYdKc4pu-3" value="" style="ellipse;shape=startState;fillColor=#000000;strokeColor=#ff0000;" vertex="1" parent="4KUZXzNGoTsXKYdKc4pu-2">
          <mxGeometry x="100" y="40" width="30" height="30" as="geometry" />
        </mxCell>
        <mxCell id="4KUZXzNGoTsXKYdKc4pu-4" value="" style="edgeStyle=elbowEdgeStyle;elbow=horizontal;verticalAlign=bottom;endArrow=open;endSize=8;strokeColor=#FF0000;endFill=1;rounded=0" edge="1" parent="4KUZXzNGoTsXKYdKc4pu-2" source="4KUZXzNGoTsXKYdKc4pu-3" target="4KUZXzNGoTsXKYdKc4pu-5">
          <mxGeometry x="100" y="40" as="geometry">
            <mxPoint x="115" y="110" as="targetPoint" />
          </mxGeometry>
        </mxCell>
        <mxCell id="4KUZXzNGoTsXKYdKc4pu-5" value="Masuk ke &#xa;halaman admin" style="" vertex="1" parent="4KUZXzNGoTsXKYdKc4pu-2">
          <mxGeometry x="60" y="110" width="110" height="50" as="geometry" />
        </mxCell>
        <mxCell id="4KUZXzNGoTsXKYdKc4pu-6" value="Masuk Menu&#xa;Pengujian" style="" vertex="1" parent="4KUZXzNGoTsXKYdKc4pu-2">
          <mxGeometry x="60" y="220" width="110" height="50" as="geometry" />
        </mxCell>
        <mxCell id="4KUZXzNGoTsXKYdKc4pu-7" value="Input Presentase&#xa;Datasets" style="" vertex="1" parent="4KUZXzNGoTsXKYdKc4pu-2">
          <mxGeometry x="60" y="325" width="110" height="50" as="geometry" />
        </mxCell>
        <mxCell id="4KUZXzNGoTsXKYdKc4pu-8" value="" style="endArrow=open;strokeColor=#FF0000;endFill=1;rounded=0" edge="1" parent="4KUZXzNGoTsXKYdKc4pu-2" source="4KUZXzNGoTsXKYdKc4pu-6" target="4KUZXzNGoTsXKYdKc4pu-7">
          <mxGeometry relative="1" as="geometry" />
        </mxCell>
        <mxCell id="4KUZXzNGoTsXKYdKc4pu-9" value="Sistem" style="swimlane;whiteSpace=wrap" vertex="1" parent="4KUZXzNGoTsXKYdKc4pu-1">
          <mxGeometry x="360" y="128" width="199.5" height="392" as="geometry">
            <mxRectangle x="164.5" y="128" width="90" height="30" as="alternateBounds" />
          </mxGeometry>
        </mxCell>
        <mxCell id="4KUZXzNGoTsXKYdKc4pu-10" value="Menampilkan&#xa;halaman dashboard" style="" vertex="1" parent="4KUZXzNGoTsXKYdKc4pu-9">
          <mxGeometry x="60" y="110" width="110" height="50" as="geometry" />
        </mxCell>
        <mxCell id="4KUZXzNGoTsXKYdKc4pu-11" value="Menampilkan&#xa;Hasil Pengujian" style="" vertex="1" parent="4KUZXzNGoTsXKYdKc4pu-9">
          <mxGeometry x="65" y="232" width="110" height="50" as="geometry" />
        </mxCell>
        <mxCell id="4KUZXzNGoTsXKYdKc4pu-12" value="" style="endArrow=open;strokeColor=#FF0000;endFill=1;rounded=0" edge="1" parent="4KUZXzNGoTsXKYdKc4pu-9" source="4KUZXzNGoTsXKYdKc4pu-11">
          <mxGeometry relative="1" as="geometry">
            <mxPoint x="120" y="332" as="targetPoint" />
          </mxGeometry>
        </mxCell>
        <mxCell id="4KUZXzNGoTsXKYdKc4pu-13" value="" style="ellipse;html=1;shape=endState;fillColor=#000000;strokeColor=#ff0000;" vertex="1" parent="4KUZXzNGoTsXKYdKc4pu-9">
          <mxGeometry x="110" y="337" width="20" height="20" as="geometry" />
        </mxCell>
        <mxCell id="4KUZXzNGoTsXKYdKc4pu-14" value="" style="endArrow=open;strokeColor=#FF0000;endFill=1;rounded=0;entryX=0.5;entryY=0;entryDx=0;entryDy=0;" edge="1" parent="4KUZXzNGoTsXKYdKc4pu-1" target="4KUZXzNGoTsXKYdKc4pu-6">
          <mxGeometry relative="1" as="geometry">
            <mxPoint x="480" y="290" as="sourcePoint" />
            <mxPoint x="260" y="310" as="targetPoint" />
            <Array as="points">
              <mxPoint x="480" y="320" />
              <mxPoint x="276" y="320" />
            </Array>
          </mxGeometry>
        </mxCell>
        <mxCell id="4KUZXzNGoTsXKYdKc4pu-15" value="" style="edgeStyle=elbowEdgeStyle;elbow=horizontal;verticalAlign=bottom;endArrow=open;endSize=8;strokeColor=#FF0000;endFill=1;rounded=0;exitX=1.006;exitY=0.432;exitDx=0;exitDy=0;exitPerimeter=0;entryX=0;entryY=0.44;entryDx=0;entryDy=0;entryPerimeter=0;" edge="1" parent="4KUZXzNGoTsXKYdKc4pu-1">
          <mxGeometry x="100" y="40" as="geometry">
            <mxPoint x="420" y="261" as="targetPoint" />
            <mxPoint x="331.1600000000001" y="260.6" as="sourcePoint" />
          </mxGeometry>
        </mxCell>
        <mxCell id="4KUZXzNGoTsXKYdKc4pu-16" value="" style="endArrow=open;strokeColor=#FF0000;endFill=1;rounded=0;exitX=1.01;exitY=0.534;exitDx=0;exitDy=0;entryX=0;entryY=0.5;entryDx=0;entryDy=0;exitPerimeter=0;" edge="1" parent="4KUZXzNGoTsXKYdKc4pu-1" source="4KUZXzNGoTsXKYdKc4pu-7" target="4KUZXzNGoTsXKYdKc4pu-11">
          <mxGeometry relative="1" as="geometry">
            <mxPoint x="285.5" y="408" as="sourcePoint" />
            <mxPoint x="285.5" y="463" as="targetPoint" />
            <Array as="points">
              <mxPoint x="400" y="480" />
              <mxPoint x="400" y="385" />
            </Array>
          </mxGeometry>
        </mxCell>
      </root>
    </mxGraphModel>
  </diagram>
  <diagram id="PMFgYDd3pa7s7xpGsSH_" name="Page-7">
    <mxGraphModel dx="1354" dy="686" grid="1" gridSize="10" guides="1" tooltips="1" connect="1" arrows="1" fold="1" page="1" pageScale="1" pageWidth="850" pageHeight="1100" math="0" shadow="0">
      <root>
        <mxCell id="0" />
        <mxCell id="1" parent="0" />
      </root>
    </mxGraphModel>
  </diagram>
</mxfile>
